<svg aria-hidden="true" style="position: absolute; width: 0; height: 0; overflow: hidden;" version="1.1" xmlns="http://www.w3.org/2000/svg" xmlns:xlink="http://www.w3.org/1999/xlink">
<defs>
<symbol id="icon-go-contact" viewBox="0 0 30 32">
<path fill="#97d28b" style="fill: var(--color1, #97d28b)" d="M29.867 16c0 8.247-6.686 14.933-14.933 14.933s-14.933-6.686-14.933-14.933c0-8.247 6.686-14.933 14.933-14.933s14.933 6.686 14.933 14.933z"></path>
<path fill="none" stroke="#173d33" style="stroke: var(--color2, #173d33)" stroke-linejoin="round" stroke-linecap="round" stroke-miterlimit="10" stroke-width="1.7784" d="M19.789 17.728l-4.856 4.316-4.856-4.316"></path>
<path fill="none" stroke="#173d33" style="stroke: var(--color2, #173d33)" stroke-linejoin="round" stroke-linecap="round" stroke-miterlimit="10" stroke-width="1.7784" d="M14.932 9.956v11.968"></path>
</symbol>
<symbol id="icon-map" viewBox="0 0 32 32">
<path stroke-linejoin="round" stroke-linecap="round" stroke-miterlimit="4" stroke-width="2" d="M3.053 10.373v12.973c0 2.533 1.8 3.573 3.987 2.32l3.133-1.787c0.68-0.387 1.813-0.427 2.52-0.067l7 3.507c0.707 0.347 1.84 0.32 2.52-0.067l5.773-3.307c0.733-0.427 1.347-1.467 1.347-2.32v-12.973c0-2.533-1.8-3.573-3.987-2.32l-3.133 1.787c-0.68 0.387-1.813 0.427-2.52 0.067l-7-3.493c-0.707-0.347-1.84-0.32-2.52 0.067l-5.773 3.307c-0.747 0.427-1.347 1.467-1.347 2.307z"></path>
<path stroke-linejoin="round" stroke-linecap="round" stroke-miterlimit="4" stroke-width="2" d="M11.413 5.333v17.333"></path>
<path stroke-linejoin="round" stroke-linecap="round" stroke-miterlimit="4" stroke-width="2" d="M20.973 8.826v17.84"></path>
</symbol>
<symbol id="icon-call" viewBox="0 0 32 32">
<path stroke-linejoin="miter" stroke-linecap="butt" stroke-miterlimit="10" stroke-width="2" d="M29.293 24.44c0 0.48-0.107 0.973-0.333 1.453s-0.52 0.933-0.907 1.36c-0.653 0.72-1.373 1.24-2.187 1.573-0.8 0.333-1.667 0.507-2.6 0.507-1.36 0-2.813-0.32-4.347-0.973s-3.067-1.533-4.587-2.64c-1.533-1.12-2.987-2.36-4.373-3.733-1.373-1.387-2.613-2.84-3.72-4.36-1.093-1.52-1.973-3.040-2.613-4.547-0.64-1.52-0.96-2.973-0.96-4.36 0-0.907 0.16-1.773 0.48-2.573 0.32-0.813 0.827-1.56 1.533-2.227 0.853-0.84 1.787-1.253 2.773-1.253 0.373 0 0.747 0.080 1.080 0.24 0.347 0.16 0.653 0.4 0.893 0.747l3.093 4.36c0.24 0.333 0.413 0.64 0.533 0.933 0.12 0.28 0.187 0.56 0.187 0.813 0 0.32-0.093 0.64-0.28 0.947-0.173 0.307-0.427 0.627-0.747 0.947l-1.013 1.053c-0.147 0.147-0.213 0.32-0.213 0.533 0 0.107 0.013 0.2 0.040 0.307 0.040 0.107 0.080 0.187 0.107 0.267 0.24 0.44 0.653 1.013 1.24 1.707 0.6 0.693 1.24 1.4 1.933 2.107 0.72 0.707 1.413 1.36 2.12 1.96 0.693 0.587 1.267 0.987 1.72 1.227 0.067 0.027 0.147 0.067 0.24 0.107 0.107 0.040 0.213 0.053 0.333 0.053 0.227 0 0.4-0.080 0.547-0.227l1.013-1c0.333-0.333 0.653-0.587 0.96-0.747 0.307-0.187 0.613-0.28 0.947-0.28 0.253 0 0.52 0.053 0.813 0.173s0.6 0.293 0.933 0.52l4.413 3.133c0.347 0.24 0.587 0.52 0.733 0.853 0.133 0.333 0.213 0.667 0.213 1.040z"></path>
</symbol>
<symbol id="icon-instagram" viewBox="0 0 32 32">
<path fill="none"  stroke-linejoin="round" stroke-linecap="round" stroke-miterlimit="4" stroke-width="2" d="M12 29.333h8c6.667 0 9.333-2.667 9.333-9.333v-8c0-6.667-2.667-9.333-9.333-9.333h-8c-6.667 0-9.333 2.667-9.333 9.333v8c0 6.667 2.667 9.333 9.333 9.333z"></path>
<path fill="none"  stroke-linejoin="round" stroke-linecap="round" stroke-miterlimit="4" stroke-width="2" d="M16 20.667c2.577 0 4.667-2.089 4.667-4.667s-2.089-4.667-4.667-4.667c-2.577 0-4.667 2.089-4.667 4.667s2.089 4.667 4.667 4.667z"></path>
<path fill="none"  stroke-linejoin="round" stroke-linecap="round" stroke-miterlimit="4" stroke-width="2.6667" d="M23.515 9.333h0.015"></path>
</symbol>
<symbol id="icon-facebook" viewBox="0 0 32 32">
<path   d="M18.667 12.4v3.867h3.467c0.267 0 0.4 0.267 0.4 0.533l-0.533 2.533c0 0.133-0.267 0.267-0.4 0.267h-2.933v9.733h-4v-9.6h-2.267c-0.267 0-0.4-0.133-0.4-0.4v-2.533c0-0.267 0.133-0.4 0.4-0.4h2.267v-4.4c0-2.267 1.733-4 4-4h3.6c0.267 0 0.4 0.133 0.4 0.4v3.2c0 0.267-0.133 0.4-0.4 0.4h-3.2c-0.267 0-0.4 0.133-0.4 0.4z"></path>
<path fill="none" stroke-linejoin="round" stroke-linecap="round" stroke-miterlimit="4" stroke-width="2" d="M20 29.333h-8c-6.667 0-9.333-2.667-9.333-9.333v-8c0-6.667 2.667-9.333 9.333-9.333h8c6.667 0 9.333 2.667 9.333 9.333v8c0 6.667-2.667 9.333-9.333 9.333z"></path>
</symbol>
<symbol id="icon-arrow-black" viewBox="0 0 32 32">
<path  stroke-linejoin="round" stroke-linecap="round" stroke-miterlimit="10" stroke-width="1.7143" d="M12.569 7.985h11.446v11.446"></path>
<path stroke-linejoin="round" stroke-linecap="round" stroke-miterlimit="10" stroke-width="1.7143" d="M7.987 24.012l15.867-15.867"></path>
</symbol>
<symbol id="icon-arrow-up" viewBox="0 0 32 32">
<path stroke-linejoin="round" stroke-linecap="round" stroke-miterlimit="10" stroke-width="2" d="M7.906 12.76l8.093-8.093 8.093 8.093"></path>
<path stroke-linejoin="round" stroke-linecap="round" stroke-miterlimit="10" stroke-width="2" d="M16 27.333v-22.44"></path>
</symbol>
<symbol id="icon-arrow-left" viewBox="0 0 32 32">
<path stroke-linejoin="round" stroke-linecap="round" stroke-miterlimit="10" stroke-width="1.3333" d="M12.76 7.905l-8.093 8.093 8.093 8.093"></path>
<path stroke-linejoin="round" stroke-linecap="round" stroke-miterlimit="10" stroke-width="1.3333" d="M27.332 15.999h-22.44"></path>
</symbol>
<symbol id="icon-arrow-right" viewBox="0 0 31 32">
<path fill="#97d28b" style="fill: var(--color1, #97d28b)" d="M15.515 0.485c8.569 0 15.515 6.946 15.515 15.515s-6.946 15.515-15.515 15.515c-8.569 0-15.515-6.946-15.515-15.515s6.946-15.515 15.515-15.515z"></path>
<path fill="none" stroke="#173d33" style="stroke: var(--color2, #173d33)" stroke-linejoin="round" stroke-linecap="round" stroke-miterlimit="10" stroke-width="0.9697" d="M17.086 12.076l3.924 3.924-3.924 3.924"></path>
<path fill="none" stroke="#173d33" style="stroke: var(--color2, #173d33)" stroke-linejoin="round" stroke-linecap="round" stroke-miterlimit="10" stroke-width="0.9697" d="M10.020 16h10.88"></path>
</symbol>
<symbol id="icon-sms" viewBox="0 0 32 32">
<path stroke-linejoin="round" stroke-linecap="round" stroke-miterlimit="10" stroke-width="2" d="M22.667 27.333h-13.333c-4 0-6.667-2-6.667-6.667v-9.333c0-4.667 2.667-6.667 6.667-6.667h13.333c4 0 6.667 2 6.667 6.667v9.333c0 4.667-2.667 6.667-6.667 6.667z"></path>
<path stroke-linejoin="round" stroke-linecap="round" stroke-miterlimit="10" stroke-width="2" d="M22.667 12l-4.173 3.333c-1.373 1.093-3.627 1.093-5 0l-4.16-3.333"></path>
</symbol>
<symbol id="icon-arrow" viewBox="0 0 31 32">
<path fill="#97d28b" style="fill: var(--color1, #97d28b)" d="M15.515 0.485c8.569 0 15.515 6.946 15.515 15.515s-6.946 15.515-15.515 15.515c-8.569 0-15.515-6.946-15.515-15.515s6.946-15.515 15.515-15.515z"></path>
<path fill="none" stroke="#173d33" style="stroke: var(--color2, #173d33)" stroke-linejoin="round" stroke-linecap="round" stroke-miterlimit="10" stroke-width="0.9697" d="M17.086 12.076l3.924 3.924-3.924 3.924"></path>
<path fill="none" stroke="#173d33" style="stroke: var(--color2, #173d33)" stroke-linejoin="round" stroke-linecap="round" stroke-miterlimit="10" stroke-width="0.9697" d="M10.020 16h10.88"></path>
</symbol>
<symbol id="icon-menu" viewBox="0 0 30 32">
<path stroke="#292D32" stroke-linejoin="miter" stroke-linecap="round" stroke-miterlimit="4" stroke-width="1.8824" d="M3.765 9.726h22.588"></path>
<path stroke="#292D32" stroke-linejoin="miter" stroke-linecap="round" stroke-miterlimit="4" stroke-width="1.8824" d="M3.765 16h22.588"></path>
<path stroke="#292D32" stroke-linejoin="miter" stroke-linecap="round" stroke-miterlimit="4" stroke-width="1.8824" d="M3.765 22.274h22.588"></path>
</symbol>
<symbol id="icon-logo" viewBox="0 0 55 32">
<path fill="#173d33" style="fill: var(--color2, #173d33)" d="M37.919 22.771c-0.115-0.273-9.583-18.774-9.738-19.029-0.327-0.772-0.812-1.47-1.425-2.049s-1.34-1.028-2.136-1.317-1.644-0.414-2.492-0.366c-0.847 0.048-1.675 0.268-2.433 0.646s-1.427 0.906-1.968 1.55c-0.541 0.645-0.942 1.392-1.177 2.197s-0.299 1.647-0.189 2.477c0.11 0.83 0.393 1.628 0.83 2.345 0.115 0.273 9.177 17.981 9.332 18.236 0.116 0.274 0.251 0.539 0.406 0.793 0.327 0.772 0.812 1.47 1.425 2.049s1.34 1.028 2.136 1.317 1.644 0.414 2.492 0.366c0.847-0.048 1.675-0.268 2.433-0.646s1.427-0.906 1.968-1.55 0.942-1.393 1.177-2.197c0.235-0.804 0.299-1.647 0.189-2.477s-0.393-1.628-0.83-2.345z"></path>
<path fill="#97d28b" style="fill: var(--color1, #97d28b)" d="M26.985 10.252c0.58-0.61 1.027-1.331 1.312-2.119s0.402-1.625 0.345-2.46c-0.058-0.835-0.289-1.648-0.68-2.391s-0.933-1.397-1.592-1.924c-0.659-0.527-1.421-0.914-2.239-1.137s-1.673-0.278-2.513-0.161c-0.84 0.117-1.646 0.404-2.369 0.842s-1.346 1.019-1.831 1.705c-0.204 0.214-15.577 18.897-15.748 19.139-0.58 0.61-1.027 1.331-1.312 2.119s-0.403 1.625-0.345 2.46 0.289 1.649 0.68 2.391c0.391 0.742 0.933 1.397 1.592 1.924s1.421 0.914 2.239 1.137c0.817 0.223 1.673 0.278 2.513 0.161s1.646-0.404 2.369-0.842c0.723-0.438 1.346-1.019 1.831-1.705 0.204-0.214 15.577-18.897 15.748-19.139z"></path>
<path fill="#97d28b" style="fill: var(--color1, #97d28b)" d="M53.439 10.252c0.58-0.61 1.027-1.331 1.312-2.119s0.403-1.625 0.345-2.46c-0.058-0.835-0.289-1.648-0.68-2.391s-0.933-1.397-1.592-1.924c-0.659-0.527-1.421-0.914-2.239-1.137s-1.673-0.278-2.513-0.161c-0.84 0.117-1.646 0.404-2.369 0.842s-1.346 1.019-1.831 1.705c-0.204 0.214-15.577 18.897-15.748 19.138-0.58 0.61-1.027 1.332-1.312 2.119s-0.403 1.625-0.345 2.46c0.058 0.834 0.289 1.648 0.68 2.391s0.933 1.397 1.592 1.924c0.659 0.527 1.421 0.914 2.239 1.137s1.673 0.278 2.513 0.161c0.84-0.117 1.646-0.404 2.369-0.842s1.346-1.019 1.831-1.705c0.204-0.214 15.577-18.897 15.748-19.139z"></path>
</symbol>
<symbol id="icon-GREENERGY-FOR-LIFE" viewBox="0 0 105 32">
<path fill="#97d28b" style="fill: var(--color1, #97d28b)" d="M7.004 14.471c-1.944 0-3.419-0.61-4.427-1.831s-1.511-2.809-1.511-4.764c0-0.901 0.113-1.736 0.338-2.507 0.237-0.782 0.581-1.481 1.031-2.098 0.462-0.628 1.079-1.12 1.849-1.476s1.653-0.533 2.649-0.533c1.363 0 2.477 0.32 3.342 0.96 0.865 0.628 1.458 1.541 1.778 2.738l-1.618 0.338c-0.533-1.695-1.695-2.542-3.484-2.542-1.339 0-2.382 0.456-3.129 1.369s-1.12 2.181-1.12 3.804c0 1.636 0.379 2.898 1.138 3.787 0.759 0.877 1.825 1.316 3.2 1.316 1.15 0 2.044-0.284 2.684-0.853 0.652-0.569 0.978-1.256 0.978-2.062v-1.333h-3.538v-1.351h5.084v2.418c0 1.316-0.456 2.418-1.369 3.307-0.913 0.877-2.204 1.316-3.876 1.316zM14.559 14.222v-12.693h4.658c1.339 0 2.388 0.326 3.147 0.978 0.759 0.64 1.138 1.535 1.138 2.684 0 0.924-0.255 1.695-0.764 2.311-0.51 0.604-1.233 1.001-2.169 1.191l3.093 5.529h-1.884l-2.809-5.298h-2.773v5.298h-1.636zM16.194 7.449h2.969c0.841 0 1.493-0.19 1.956-0.569 0.474-0.379 0.711-0.907 0.711-1.582 0-1.553-0.901-2.329-2.702-2.329h-2.933v4.48zM25.809 14.222v-12.693h8.569v1.44h-6.933v4.107h5.742v1.44h-5.742v4.267h6.951v1.44h-8.587zM36.557 14.222v-12.693h8.569v1.44h-6.933v4.107h5.742v1.44h-5.742v4.267h6.951v1.44h-8.587zM47.304 14.222v-12.693h1.973l5.831 8.693 0.96 1.529h0.178l-0.018-2.436v-7.787h1.582v12.693h-1.884l-5.636-8.338-1.227-1.884h-0.16l0.018 2.418v7.804h-1.618z"></path>
<path fill="#173d33" style="fill: var(--color2, #173d33)" d="M60.881 14.222v-12.693h8.569v1.44h-6.933v4.107h5.742v1.44h-5.742v4.267h6.951v1.44h-8.587zM71.628 14.222v-12.693h4.658c1.339 0 2.388 0.326 3.147 0.978 0.758 0.64 1.138 1.535 1.138 2.684 0 0.924-0.255 1.695-0.764 2.311-0.51 0.604-1.233 1.001-2.169 1.191l3.093 5.529h-1.884l-2.809-5.298h-2.773v5.298h-1.636zM73.264 7.449h2.969c0.841 0 1.493-0.19 1.956-0.569 0.474-0.379 0.711-0.907 0.711-1.582 0-1.553-0.901-2.329-2.702-2.329h-2.933v4.48zM87.999 14.471c-1.944 0-3.419-0.61-4.427-1.831s-1.511-2.809-1.511-4.764c0-0.901 0.113-1.736 0.338-2.507 0.237-0.782 0.581-1.481 1.031-2.098 0.462-0.628 1.078-1.12 1.849-1.476s1.653-0.533 2.649-0.533c1.363 0 2.477 0.32 3.342 0.96 0.865 0.628 1.458 1.541 1.778 2.738l-1.618 0.338c-0.533-1.695-1.695-2.542-3.484-2.542-1.339 0-2.382 0.456-3.129 1.369s-1.12 2.181-1.12 3.804c0 1.636 0.379 2.898 1.138 3.787 0.758 0.877 1.825 1.316 3.2 1.316 1.15 0 2.044-0.284 2.684-0.853 0.652-0.569 0.978-1.256 0.978-2.062v-1.333h-3.538v-1.351h5.084v2.418c0 1.316-0.456 2.418-1.369 3.307-0.913 0.877-2.204 1.316-3.876 1.316zM98.459 14.222v-4.498l-4.569-8.196h1.902l3.467 6.596 3.484-6.596h1.884l-4.533 8.196v4.498h-1.636zM1.884 30.222v-12.693h8.32v1.44h-6.684v4.409h5.547v1.458h-5.547v5.387h-1.636zM16.989 30.471c-1.884 0-3.36-0.634-4.427-1.902-1.055-1.268-1.582-2.839-1.582-4.711s0.539-3.437 1.618-4.693c1.090-1.268 2.554-1.902 4.391-1.902s3.301 0.634 4.391 1.902c1.090 1.268 1.636 2.833 1.636 4.693 0 1.873-0.533 3.443-1.6 4.711-1.055 1.268-2.53 1.902-4.427 1.902zM16.989 29.013c1.327 0 2.382-0.468 3.164-1.404 0.794-0.936 1.191-2.187 1.191-3.751 0-1.553-0.397-2.797-1.191-3.733-0.794-0.96-1.849-1.44-3.164-1.44-1.292 0-2.341 0.48-3.147 1.44-0.794 0.936-1.191 2.181-1.191 3.733 0 1.564 0.391 2.815 1.173 3.751 0.794 0.936 1.849 1.404 3.164 1.404zM25.219 30.222v-12.693h4.658c1.339 0 2.388 0.326 3.147 0.978 0.758 0.64 1.138 1.535 1.138 2.684 0 0.924-0.255 1.695-0.764 2.311-0.51 0.604-1.233 1.001-2.169 1.191l3.093 5.529h-1.884l-2.809-5.298h-2.773v5.298h-1.636zM26.855 23.449h2.969c0.841 0 1.493-0.19 1.956-0.569 0.474-0.379 0.711-0.907 0.711-1.582 0-1.553-0.901-2.329-2.702-2.329h-2.933v4.48zM40.55 30.222v-12.693h1.636v11.236h6.667v1.458h-8.302zM50.534 30.222v-12.693h1.636v12.693h-1.636zM55.239 30.222v-12.693h8.32v1.44h-6.684v4.409h5.547v1.458h-5.547v5.387h-1.636zM65.362 30.222v-12.693h8.569v1.44h-6.933v4.107h5.742v1.44h-5.742v4.267h6.951v1.44h-8.587z"></path>
</symbol>
<symbol id="icon-ecosolution" viewBox="0 0 216 32">
<path d="M12.461 31.269c-6.589 0-11.236-4.646-11.236-10.982s4.646-10.982 11.236-10.982c6.589 0 11.151 4.646 11.151 10.982v1.647h-17.572c0.634 3.337 3.168 5.153 6.42 5.153 2.45 0 4.224-0.718 5.364-2.281h4.942c-1.605 3.928-5.407 6.463-10.307 6.463zM6.167 18.090h12.63c-0.803-3.041-3.295-4.604-6.336-4.604-3.126 0-5.491 1.605-6.294 4.604zM35.604 31.269c-6.589 0-11.236-4.646-11.236-10.982s4.646-10.982 11.236-10.982c5.618 0 9.757 3.379 10.813 8.237h-4.604c-0.972-2.408-3.21-4.013-6.209-4.013-3.971 0-6.632 2.83-6.632 6.758s2.661 6.758 6.632 6.758c2.999 0 5.238-1.605 6.209-4.013h4.604c-1.056 4.858-5.196 8.237-10.813 8.237zM58.417 31.269c-6.589 0-11.236-4.646-11.236-10.982s4.646-10.982 11.236-10.982c6.589 0 11.236 4.646 11.236 10.982s-4.646 10.982-11.236 10.982zM58.417 27.045c3.971 0 6.589-2.83 6.589-6.758s-2.619-6.758-6.589-6.758c-3.971 0-6.632 2.83-6.632 6.758s2.661 6.758 6.632 6.758zM79.192 31.269c-5.28 0-8.617-2.83-8.744-6.674h4.604c0.084 1.563 1.478 2.619 4.14 2.619 2.788 0 4.097-1.183 4.097-2.619 0-1.774-1.985-1.985-4.435-2.323-3.379-0.422-7.983-1.056-7.983-5.998 0-4.182 3.252-6.97 8.279-6.97s8.152 2.872 8.237 6.505h-4.52c-0.127-1.436-1.436-2.45-3.675-2.45-2.408 0-3.717 1.14-3.717 2.577 0 1.774 2.070 1.985 4.435 2.323 3.21 0.422 7.983 1.014 7.983 5.998 0 4.224-3.421 7.012-8.701 7.012zM99.959 31.269c-6.589 0-11.236-4.646-11.236-10.982s4.646-10.982 11.236-10.982c6.589 0 11.236 4.646 11.236 10.982s-4.646 10.982-11.236 10.982zM99.959 27.045c3.971 0 6.589-2.83 6.589-6.758s-2.619-6.758-6.589-6.758c-3.971 0-6.632 2.83-6.632 6.758s2.661 6.758 6.632 6.758zM113.511 30.72v-29.99h4.562v29.99h-4.562zM131.599 31.269c-6.168 0-10.307-3.548-10.307-10.56v-10.856h4.562v10.856c0 4.224 2.282 6.336 5.745 6.336s5.745-2.112 5.745-6.336v-10.856h4.562v10.856c0 6.97-4.14 10.56-10.307 10.56zM152.8 31.269c-5.027 0-8.448-2.788-8.448-8.532v-20.275h4.562v7.392h11.109v4.14h-11.109v8.744c0 3.041 1.563 4.308 3.886 4.308s3.928-1.225 3.928-4.308v-0.507h4.52v0.507c0 5.745-3.421 8.532-8.448 8.532zM165.875 6.897c-1.774 0-3.084-1.352-3.084-3.126s1.309-3.126 3.084-3.126c1.774 0 3.084 1.352 3.084 3.126s-1.309 3.126-3.084 3.126zM163.552 30.72v-20.867h4.562v20.867h-4.562zM181.683 31.269c-6.589 0-11.236-4.646-11.236-10.982s4.646-10.982 11.236-10.982c6.589 0 11.236 4.646 11.236 10.982s-4.646 10.982-11.236 10.982zM181.683 27.045c3.971 0 6.589-2.83 6.589-6.758s-2.619-6.758-6.589-6.758c-3.971 0-6.632 2.83-6.632 6.758s2.661 6.758 6.632 6.758zM194.518 30.72v-10.856c0-6.97 4.14-10.56 10.307-10.56s10.307 3.548 10.307 10.56v10.856h-4.562v-10.856c0-4.224-2.281-6.336-5.745-6.336s-5.745 2.112-5.745 6.336v10.856h-4.562z"></path>
</symbol>
<symbol id="icon-arrow-menu" viewBox="0 0 30 32">
<path fill="none"  stroke-linejoin="round" stroke-linecap="round" stroke-miterlimit="10" stroke-width="1.8824" d="M11.829 8.456h10.772v10.772"></path>
<path fill="none"  stroke-linejoin="round" stroke-linecap="round" stroke-miterlimit="10" stroke-width="1.8824" d="M7.517 23.541l14.934-14.934"></path>
</symbol>
<symbol id="icon-close" viewBox="0 0 32 32">
<path stroke-linejoin="round" stroke-linecap="round" stroke-miterlimit="4" stroke-width="2.4" d="M9.333 9.333l13.333 13.333M9.333 22.667l13.333-13.333"></path>
</symbol>
<symbol id="icon-arrow-card" viewBox="0 0 32 32">
<path fill="none"  stroke-linejoin="round" stroke-linecap="round" stroke-miterlimit="10" stroke-width="1.8824" d="M11.829 8.456h10.772v10.772"></path>
<path fill="none"  stroke-linejoin="round" stroke-linecap="round" stroke-miterlimit="10" stroke-width="1.8824" d="M7.517 23.541l14.934-14.934"></path>
</symbol>
<symbol id="icon-minus" viewBox="0 0 32 32">
<path stroke-linejoin="round" stroke-linecap="round" stroke-miterlimit="4" stroke-width="3" d="M8 16h16"></path>
</symbol>
<symbol id="icon-add" viewBox="0 0 32 32">
<path fill="none" stroke="#97d28b" style="stroke: var(--color1, #97d28b)" stroke-linejoin="round" stroke-linecap="round" stroke-miterlimit="4" stroke-width="3" d="M8 16h16"></path>
<path fill="none" stroke="#97d28b" style="stroke: var(--color1, #97d28b)" stroke-linejoin="round" stroke-linecap="round" stroke-miterlimit="4" stroke-width="3" d="M16 24v-16"></path>
</symbol>
<symbol id="icon-arrow-up-right2" viewBox="0 0 32 32">
<path d="M7.414 27.414l16.586-16.586v7.172c0 1.105 0.895 2 2 2s2-0.895 2-2v-12c0-0.809-0.487-1.538-1.235-1.848-0.248-0.103-0.508-0.151-0.765-0.151v-0.001h-12c-1.105 0-2 0.895-2 2s0.895 2 2 2h7.172l-16.586 16.586c-0.391 0.39-0.586 0.902-0.586 1.414s0.195 1.024 0.586 1.414c0.781 0.781 2.047 0.781 2.828 0z"></path>
</symbol>
</defs>
</svg>
